<svg viewBox="0 0 256 256" xmlns="http://www.w3.org/2000/svg" preserveAspectRatio="xMidYMid">
  <defs>
    <linearGradient id="gradient" x1="0%" y1="0%" x2="100%" y2="100%">
      <stop offset="0%" style="stop-color:#f7931a"/>
      <stop offset="100%" style="stop-color:#f7931a"/>
    </linearGradient>
  </defs>
  <circle cx="128" cy="128" r="128" fill="url(#gradient)"/>
  <path d="M181.34 108.22c3.34-22.45-13.74-34.52-37.15-42.6l7.6-30.47-18.55-4.63-7.4 29.68c-4.87-1.21-9.87-2.36-14.82-3.49l7.46-29.89-18.54-4.62-7.6 30.47c-4.03-0.92-7.99-1.82-11.85-2.77v-0.05l-25.58-6.38-4.93 19.8s13.74 3.15 13.45 3.34c7.5 1.87 8.86 6.84 8.64 10.78l-8.64 34.64c0.52 0.13 1.19 0.32 1.93 0.61-0.62-0.15-1.28-0.32-1.96-0.49l-12.1 48.5c-0.92 2.28-3.25 5.71-8.51 4.41 0.19 0.27-13.46-3.36-13.46-3.36l-9.21 21.22 24.15 6.02c4.49 1.12 8.9 2.29 13.24 3.4l-7.68 30.82 18.53 4.63 7.6-30.48c5.07 1.37 9.99 2.64 14.8 3.83l-7.58 30.37 18.55 4.62 7.68-30.8c31.68 6 55.5 3.58 65.54-25.12 8.09-23.08-0.4-36.35-17.07-45.01 12.14-2.8 21.29-10.79 23.72-27.28zm-42.45 59.55c-5.74 23.05-44.58 10.58-57.17 7.9l10.2-40.88c12.59 3.14 52.89 9.35 46.97 32.98zm5.75-59.89c-5.23 20.96-37.55 10.31-48.02 7.7l9.25-37.08c10.47 2.61 44.24 7.48 38.77 29.38z" fill="#ffffff"/>
</svg>