<svg viewBox="0 0 256 256" xmlns="http://www.w3.org/2000/svg" preserveAspectRatio="xMidYMid">
  <circle cx="128" cy="128" r="128" fill="#FF0420"/>
  <path d="M85.5 96C71.4 96 60 107.4 60 121.5C60 135.6 71.4 147 85.5 147H103.5C117.6 147 129 158.4 129 172.5C129 186.6 117.6 198 103.5 198H60V173H103.5C106.8 173 109.5 170.3 109.5 167C109.5 163.7 106.8 161 103.5 161H85.5C64.2 161 47 143.8 47 122.5C47 101.2 64.2 84 85.5 84H129V96H85.5ZM170.5 84C198.6 84 221 106.4 221 134.5C221 162.6 198.6 185 170.5 185C142.4 185 120 162.6 120 134.5C120 106.4 142.4 84 170.5 84ZM170.5 160C183.4 160 194 149.4 194 136.5C194 123.6 183.4 113 170.5 113C157.6 113 147 123.6 147 136.5C147 149.4 157.6 160 170.5 160Z" fill="white"/>
</svg>