<svg viewBox="0 0 256 256" xmlns="http://www.w3.org/2000/svg" preserveAspectRatio="xMidYMid">
  <path d="M256 128C256 198.692 198.692 256 128 256C57.308 256 0 198.692 0 128C0 57.308 57.308 0 128 0C198.692 0 256 57.308 256 128Z" fill="#8247E5"/>
  <path d="M190.381 73.584L175.159 82.071C173.613 82.929 172.067 84.572 172.067 86.215V101.437C172.067 103.08 173.613 104.723 175.159 105.581L190.381 114.068C191.927 114.926 193.473 114.926 195.019 114.068L210.241 105.581C211.787 104.723 213.333 103.08 213.333 101.437V86.215C213.333 84.572 211.787 82.929 210.241 82.071L195.019 73.584C193.473 72.726 191.927 72.726 190.381 73.584Z" fill="white"/>
  <path d="M190.381 151.368L175.159 159.855C173.613 160.713 172.067 162.356 172.067 164V179.222C172.067 180.864 173.613 182.507 175.159 183.365L190.381 191.852C191.927 192.71 193.473 192.71 195.019 191.852L210.241 183.365C211.787 182.507 213.333 180.864 213.333 179.222V164C213.333 162.356 211.787 160.713 210.241 159.855L195.019 151.368C193.473 150.51 191.927 150.51 190.381 151.368Z" fill="white"/>
  <path d="M112.491 112.476L97.269 120.963C95.723 121.821 94.177 123.464 94.177 125.107V140.329C94.177 141.972 95.723 143.615 97.269 144.473L112.491 152.96C114.037 153.818 115.583 153.818 117.129 152.96L132.351 144.473C133.897 143.615 135.443 141.972 135.443 140.329V125.107C135.443 123.464 133.897 121.821 132.351 120.963L117.129 112.476C115.583 111.618 114.037 111.618 112.491 112.476Z" fill="white"/>
  <path d="M60.981 73.584L45.759 82.071C44.213 82.929 42.667 84.572 42.667 86.215V101.437C42.667 103.08 44.213 104.723 45.759 105.581L60.981 114.068C62.527 114.926 64.073 114.926 65.619 114.068L80.841 105.581C82.387 104.723 83.933 103.08 83.933 101.437V86.215C83.933 84.572 82.387 82.929 80.841 82.071L65.619 73.584C64.073 72.726 62.527 72.726 60.981 73.584Z" fill="white"/>
  <path d="M60.981 151.368L45.759 159.855C44.213 160.713 42.667 162.356 42.667 164V179.222C42.667 180.864 44.213 182.507 45.759 183.365L60.981 191.852C62.527 192.71 64.073 192.71 65.619 191.852L80.841 183.365C82.387 182.507 83.933 180.864 83.933 179.222V164C83.933 162.356 82.387 160.713 80.841 159.855L65.619 151.368C64.073 150.51 62.527 150.51 60.981 151.368Z" fill="white"/>
</svg>